<?xml version="1.0" encoding="UTF-8"?>
<svg width="21px" height="28px" viewBox="0 0 21 28" version="1.1" xmlns="http://www.w3.org/2000/svg" xmlns:xlink="http://www.w3.org/1999/xlink">
    <title>形状结合</title>
    <g id="A01_酒店中心" stroke="none" stroke-width="1" fill="none" fill-rule="evenodd">
        <g id="编组" transform="translate(-24.000000, -18.000000)" fill="#FFFFFF">
            <path d="M37.407948,18.0005736 C37.4265243,18.0005736 37.4420045,18.0020358 37.4590328,18.0049602 C37.4791571,18.0093467 37.4930894,18.0181199 37.5085696,18.026893 C37.5178578,18.0327417 37.5271459,18.0371283 37.533338,18.0429771 C37.5534624,18.0649099 37.5642986,18.0897671 37.5581065,18.1263217 C37.5255979,18.370507 37.5441742,19.1293823 37.7624459,20.2669641 C37.8197228,20.5389309 37.8831919,20.8269819 37.9605931,21.1355034 C38.0999155,21.686748 38.2810345,22.3096399 38.5147863,22.9793217 C39.2021098,24.9371906 40.5891408,27.2503711 41.2950405,29.7682578 C41.505572,30.487654 41.6681147,31.2231342 41.7393239,31.9732363 C42.2176638,36.9432113 36.8429186,40.0708301 33.853681,41.3824122 C32.7220742,41.8678584 31.9759258,42.1310522 31.9759258,42.1310522 C31.9666376,42.1500606 31.9527054,42.17638 31.9248409,42.2100103 C29.7514128,44.5743673 28.0300083,46 28.0300083,46 C28.0300083,46 26.8566048,45.7909072 26.4726944,45.3844191 C26.2575188,45.1548557 26.1739254,44.9355276 26.1398689,44.7849223 L26.1398689,44.7849223 L26.1367728,44.7703004 C26.0547275,44.564132 26.0640156,44.4164511 26.0640156,44.4164511 C27.4046059,43.9368536 29.4247794,42.0842622 29.9062154,41.4964628 C29.938724,41.4613703 32.0424909,38.8923071 32.4403335,36.4270591 C32.831984,33.9486515 32.3722204,32.5127835 32.7174301,28.9713656 C33.0564477,25.5045193 35.3212093,21.0872512 35.5874697,20.4833678 C35.1617627,21.0082931 32.2654066,24.6900809 31.4944898,28.8295335 C30.8396749,32.3548673 31.4991339,34.6505015 31.1941728,37.4432794 C30.9074385,40.0463031 29.2890106,41.0088743 29.0813747,41.1222424 L29.0594454,41.1338404 L28.9774,41.0695041 L28.9657197,41.0602706 C28.8432842,40.9634525 27.7930693,40.132242 27.469623,39.851502 C22.1537027,35.3070236 23.9401244,29.0342397 26.2838353,26.025058 C28.7808007,22.8155567 35.5673454,18.9480711 37.1912244,18.0532124 L37.1912244,18.0532124 C37.229925,18.0356661 37.2763658,18.0166577 37.2763658,18.0166577 L37.2763658,18.0166577 L37.2866215,18.0150127 L37.2866215,18.0150127 L37.2980381,18.0122711 C37.3166145,18.0078846 37.3336427,18.0064224 37.3537671,18.003498 C37.3723434,18.0005736 37.3909197,17.9991114 37.407948,18.0005736 Z M42.6049203,18.8537218 C42.7831466,18.7901109 43.0138861,18.8256146 42.9677382,18.973547 C42.8754424,19.2738498 42.7449552,21.0756665 42.8961294,22.7561785 C42.9502338,23.3316356 43.0329817,23.9736622 43.1618776,24.6881757 C43.6472261,27.2843893 45.1892021,29.935338 44.980741,33.2904448 C44.7404537,37.222488 40.2609257,40.1012525 37.1196866,41.5391555 C35.7114939,42.1834011 36.158375,41.740887 36.2765411,41.644773 L36.2969811,41.6293942 C36.4911205,41.5243622 36.6868512,41.4148923 36.8841732,41.3024636 C39.2647678,39.925213 41.47191,37.9636294 42.3885026,35.1203686 C42.6351551,34.4265656 42.7640509,33.675069 42.73859,32.8732754 C42.73859,32.6351043 42.7290422,32.3954538 42.7051726,32.149886 C42.4664766,29.7178773 41.5323797,27.4811394 40.599874,25.5062419 C40.1765865,24.6023749 39.8026294,23.735491 39.5321073,22.9677219 C39.312507,22.3745129 39.0865415,21.8301217 38.9162717,21.205847 C38.876489,21.0593939 38.8637586,20.9839484 38.8335237,20.8374953 L38.8335237,20.8374953 L39.1533763,20.6289106 L39.1533763,20.6289106 C40.3930042,20.1155852 42.1434414,19.0268027 42.6049203,18.8537218 Z" id="形状结合"></path>
        </g>
    </g>
</svg>